<svg width="40px" height="40px" viewBox="-9.51 0 99.661 99.661" xmlns="http://www.w3.org/2000/svg">
  <path id="Path_27" data-name="Path 27" d="M1034.221,301.527c-.039-.039-.082-.07-.121-.109s-.08-.092-.123-.136a22.669,22.669,0,0,0-38.1,21.413,7.354,7.354,0,0,0-1.543,1.3l-24.037,26.777a7.921,7.921,0,0,0-.01,10.46l-7.246,7.072a9.3,9.3,0,0,0-.08,13.235l2.449,2.45a10.4,10.4,0,0,0,13.639.706l41.437-33.635a6.143,6.143,0,0,1,3.875-1.319,6.249,6.249,0,0,1,4.415,1.748l1.714,1.714a4.515,4.515,0,0,1,1.4,3.209,4.447,4.447,0,0,1-1.832,3.535l-22.715,17.523a2,2,0,1,0,2.443,3.168l22.715-17.524a8.345,8.345,0,0,0,.819-12.738l-1.715-1.714a10.389,10.389,0,0,0-13.639-.706l-41.438,33.632a6.149,6.149,0,0,1-3.875,1.319,6.24,6.24,0,0,1-4.412-1.747l-2.451-2.45a5.3,5.3,0,0,1,.047-7.543l7.264-7.09.595.6a7.849,7.849,0,0,0,5.557,2.268h.01a7.81,7.81,0,0,0,5.226-1.976l26.78-24.034a7.426,7.426,0,0,0,1.3-1.548,22.721,22.721,0,0,0,5.361.665h.016a22.638,22.638,0,0,0,16.038-6.649l-1.415-1.415,1.415,1.413a22.671,22.671,0,0,0,3.735-4.961c.053-.034.107-.062.16-.1l.459-.3.242-.494a22.723,22.723,0,0,0-4.353-26.018Zm-52.407,60.461a3.932,3.932,0,0,1-5.293-.142l-3.107-3.106a3.933,3.933,0,0,1-.143-5.295l23.987-26.727A22.371,22.371,0,0,0,1008.543,338Zm36.11-25.939a18.684,18.684,0,0,1-14.963-29.915,22.884,22.884,0,0,0-.236,3.211,22.679,22.679,0,0,0,27.32,22.223A18.627,18.627,0,0,1,1017.924,336.049ZM1034.7,325.58a18.707,18.707,0,0,1-26.32-23.945,18.5,18.5,0,0,1,26.32,23.945ZM992.66,388.794l-2.482,1.913a2,2,0,0,0,2.443,3.169l2.482-1.916a2,2,0,1,0-2.443-3.166Zm8.4-6.476-1.2.927a2,2,0,1,0,2.444,3.166l1.2-.926a2,2,0,0,0-2.443-3.167Z" transform="translate(-960.232 -294.631)" fill="blue"/>
</svg>

