<svg height="40px" width="40px" version="1.1" xmlns="http://www.w3.org/2000/svg" xmlns:xlink="http://www.w3.org/1999/xlink" viewBox="0 0 32.082 32.082" xml:space="preserve">
  <g id="Layer_32">
    <path style="fill:#66CCFF;" d="M11.654,28.913l-2.266-2.266l6.26-4.904l0.003-0.003c0.003-0.003,1.317-1.058,3.178-2.541
		c1.861-1.483,4.264-3.39,6.432-5.086l-1.232-1.575c-4.33,3.387-9.57,7.595-9.625,7.639l-6.441,5.046L6.86,24.118l5.043-6.437
		c0.017-0.021,4.244-5.285,7.642-9.628L17.969,6.82c-1.696,2.168-3.604,4.572-5.086,6.432c-1.483,1.861-2.538,3.175-2.541,3.178
		l-0.003,0.004l-4.904,6.259l-2.266-2.266l-1.414,1.414l8.485,8.485L11.654,28.913z"/>
    <path style="fill:green;" d="M19.142,1.46C18.16,0.475,16.878-0.002,15.628,0c-1.829-0.004-3.65,1.015-4.52,2.866l-0.001,0
		c-0.02,0.042-4.66,9.554-8.77,18.394c-0.154,0.154-0.415,0.415-0.582,0.582C0.586,23.01-0.001,24.552,0,26.085
		c-0.001,1.532,0.586,3.074,1.755,4.243c1.168,1.169,2.71,1.756,4.243,1.755c1.532,0.001,3.074-0.586,4.243-1.755
		c0.167-0.167,0.429-0.429,0.582-0.582c4.407-2.049,8.975-4.226,12.457-5.899c1.762-0.847,3.246-1.564,4.29-2.07
		c0.522-0.253,0.934-0.453,1.215-0.59l0.322-0.157l0.083-0.04l0.021-0.009l0.005-0.001h0.001h0l-0.001-0.003l0,0l-0.001-0.001
		c0,0,0.001,0,0.001,0l0.001,0.001l0,0l-0.001-0.001c1.851-0.87,2.87-2.691,2.866-4.52c0.002-1.25-0.475-2.531-1.46-3.514
		l-0.707,0.707l0.707-0.707c-0.965-0.966-2.245-1.461-3.525-1.46c-0.266,0-0.533,0.022-0.798,0.065
		c0.039-0.254,0.065-0.51,0.065-0.767c0.002-1.285-0.49-2.587-1.482-3.578c-0.991-0.992-2.293-1.484-3.577-1.482
		c-0.257,0-0.513,0.026-0.767,0.065c0.043-0.265,0.065-0.531,0.065-0.798C20.603,3.705,20.108,2.425,19.142,1.46z M11.101,2.879
		L11.101,2.879C11.101,2.879,11.101,2.879,11.101,2.879L11.101,2.879z M29.203,20.981L29.203,20.981L29.203,20.981L29.203,20.981z
		 M21.305,7.717c0.784,0.002,1.557,0.292,2.163,0.896c0.605,0.606,0.895,1.38,0.897,2.164c-0.002,0.911-0.395,1.806-1.176,2.418
		c-0.008,0.006-0.011,0.016-0.019,0.022c-0.096,0.08-0.178,0.171-0.237,0.277c-0.063,0.113-0.102,0.236-0.118,0.362
		c0,0.002-0.001,0.003-0.001,0.005v0c-0.016,0.128-0.006,0.259,0.028,0.385c0.035,0.126,0.094,0.246,0.177,0.352
		c0.083,0.106,0.185,0.192,0.299,0.256c0.229,0.128,0.499,0.161,0.752,0.092c0.112-0.031,0.216-0.088,0.313-0.157
		c0.012-0.009,0.027-0.01,0.039-0.019c0.281-0.22,0.562-0.44,0.841-0.658h0c0.544-0.426,1.188-0.632,1.835-0.633
		c0.77,0.001,1.53,0.294,2.111,0.874c0.598,0.601,0.872,1.345,0.874,2.1c-0.004,1.113-0.603,2.191-1.725,2.715l0,0l-0.013,0.006
		c-0.025,0.012-9.644,4.704-18.525,8.831l-0.286,0.2c-0.001,0.001-0.463,0.463-0.707,0.707c-0.781,0.781-1.8,1.168-2.828,1.169
		c-1.029-0.001-2.047-0.389-2.829-1.169c-0.781-0.781-1.168-1.8-1.169-2.828c0.001-1.029,0.389-2.047,1.169-2.828
		c0.244-0.244,0.707-0.707,0.707-0.707l0.2-0.286c2.063-4.439,4.27-9.07,5.962-12.59c0.846-1.76,1.563-3.243,2.068-4.286
		c0.253-0.521,0.453-0.933,0.589-1.214l0.157-0.322l0.04-0.083l0.021-0.043l0-0.001C13.438,2.603,14.515,2.004,15.628,2
		c0.755,0.002,1.499,0.276,2.1,0.874c0.58,0.581,0.874,1.341,0.874,2.111c-0.001,0.647-0.208,1.291-0.633,1.835
		c-0.215,0.275-0.432,0.552-0.649,0.83c-0.024,0.031-0.031,0.068-0.051,0.101c-0.049,0.08-0.1,0.159-0.125,0.249
		c-0.07,0.253-0.038,0.524,0.09,0.753c0.064,0.114,0.15,0.216,0.256,0.3c0.106,0.083,0.225,0.142,0.351,0.177
		c0.253,0.07,0.524,0.037,0.753-0.091c0.083-0.046,0.15-0.116,0.217-0.184c0.025-0.026,0.058-0.04,0.081-0.069
		C19.505,8.11,20.397,7.719,21.305,7.717z"/>
  </g>
  <g id="Layer_1"/>
</svg>