<svg width="40px" height="40px" viewBox="0 0 32 32" id="object" xmlns="http://www.w3.org/2000/svg"><defs><style>.cls-1{fill:#eef5fd;}.cls-2{fill:#6d6daa;}.cls-3{fill:#96d7ff;}.cls-4{fill:#798bc6;}</style></defs><title/><rect class="cls-1" height="20" width="28" x="2" y="2"/><path class="cls-2" d="M30,23H2a1,1,0,0,1-1-1V2A1,1,0,0,1,2,1H30a1,1,0,0,1,1,1V22A1,1,0,0,1,30,23ZM3,21H29V3H3Z"/><path class="cls-2" d="M21,31H11a1,1,0,0,1-.75-.34,1,1,0,0,1-.24-.78l1-8A1,1,0,0,1,12,21h8a1,1,0,0,1,1,.88l1,8a1,1,0,0,1-.24.78A1,1,0,0,1,21,31Zm-8.87-2h7.74l-.75-6H12.88Z"/><path class="cls-2" d="M26,31H6a1,1,0,0,1,0-2H26a1,1,0,0,1,0,2Z"/><polygon class="cls-3" points="21 17 11 17 11 9.31 16 7 21 9.31 21 17"/><path class="cls-2" d="M21,18H11a1,1,0,0,1-1-1V9.31a1,1,0,0,1,.58-.91l5-2.31a1,1,0,0,1,.84,0l5,2.31a1,1,0,0,1,.58.91V17A1,1,0,0,1,21,18Zm-9-2h8V10L16,8.1,12,10Z"/><rect class="cls-4" height="4" width="3" x="14.5" y="13"/><path class="cls-2" d="M17.5,18h-3a1,1,0,0,1-1-1V13a1,1,0,0,1,1-1h3a1,1,0,0,1,1,1v4A1,1,0,0,1,17.5,18Zm-2-2h1V14h-1Z"/></svg>